# xmcd CD database file
#
# Track frame offsets:
#	150
#	3113
#	22822
#	39334
#	43361
#	73078
#	89941
#	104682
#	105230
#	113093
#	141845
#	150519
#	181796
#	204450
#	215585
#	245705
#	263300
#
# Disc length: 3781 seconds
#
# Revision: 0
# Processed by: cddbd v1.5.2PL0 Copyright (c) Steve Scherf et al.
# Submitted via: CDex 1.70beta2
#
DISCID=e30ec311
DTITLE=Preservation Hall Jazz Band - The Hurricane Tapes
DYEAR=1900
DGENRE=Jazz
TTITLE0=Radio Intro
TTITLE1=How Long Blues
TTITLE2=Eh La Ba
TTITLE3=Band Introduction/Allan Jaffe
TTITLE4=Apple Tree
TTITLE5=Complicated Life
TTITLE6=Do You Know What It Means
TTITLE7=Intro/Larry Borenstein
TTITLE8=Sister Gertrude Morgan
TTITLE9=Over In The Gloryland
TTITLE10=Heebie Jeebies
TTITLE11=Blow Wind Blow
TTITLE12=Sugar Blues
TTITLE13=I Cant Give You Anything But Love
TTITLE14=Who Threw The Whiskey In The Well
TTITLE15=Precious Lord
TTITLE16=Last Chance To Dance
EXTD=
EXTT0=
EXTT1=
EXTT2=
EXTT3=
EXTT4=
EXTT5=
EXTT6=
EXTT7=
EXTT8=
EXTT9=
EXTT10=
EXTT11=
EXTT12=
EXTT13=
EXTT14=
EXTT15=
EXTT16=
PLAYORDER=
